<svg xmlns="http://www.w3.org/2000/svg" width="220" height="88" viewBox="0 0 220 88">
  <path fill="#FFF" fill-rule="evenodd" d="M54,44 C54,37.4745433 48.7914556,32.1656072 42.3049748,32.0037999 L42,32 L16,32 C7.163444,32 0,24.836556 0,16 C0,7.163444 7.163444,0 16,0 L184,0 C192.836556,0 200,7.163444 200,16 C200,24.836556 192.836556,32 184,32 L134,32 C127.372583,32 122,37.372583 122,44 C122,50.5254567 127.208544,55.8343928 133.695025,55.9962001 L134,56 L204,56 C212.836556,56 220,63.163444 220,72 C220,80.836556 212.836556,88 204,88 L36,88 C27.163444,88 20,80.836556 20,72 C20,63.163444 27.163444,56 36,56 L42,56 C48.627417,56 54,50.627417 54,44 Z" opacity=".12"/>
</svg>
